<svg xmlns="http://www.w3.org/2000/svg" viewBox="0 0 34.091 15.442" height="58.363" width="128.848" xmlns:v="https://vecta.io/nano"><text y="126.816" x="57.16" xml:space="preserve" font-size="10.583" font-family="sans-serif" fill="#000"><tspan y="15.241" x="-0.212" font-weight="normal" font-family="FinkHeavy">tracker</tspan></text><text y="119.043" x="58.763" xml:space="preserve" font-size="10.583" font-family="sans-serif" fill="#000"><tspan y="7.468" x="1.391" font-weight="normal" font-family="FinkHeavy">critter</tspan></text><ellipse cx="12.38" cy="1.737" rx=".928" ry=".877" fill="#fff"/><ellipse transform="matrix(.854254 -.519855 .52389 .851786 -58.358 -109.467)" ry="1" rx=".334" cy="131.636" cx="1.819"/><ellipse transform="matrix(.442364 -.896836 .898686 .438592 -58.358 -109.467)" ry=".485" rx=".271" cy="111.693" cx="-69.15"/><ellipse transform="matrix(.998559 -.053658 .054229 .998529 -58.358 -109.467)" ry=".518" rx=".284" cy="115.362" cx="64.044"/><ellipse cx="-72.557" cy="109.209" rx=".272" ry=".483" transform="matrix(-.999864 -.016492 -.016668 .999861 -58.358 -109.467)"/><ellipse cx="72.348" cy="124.101" rx=".336" ry=".55" transform="matrix(-.574729 .818344 .908373 .41816 -58.358 -109.467)"/><g fill="none" stroke="#000" stroke-width=".059" stroke-miterlimit="0"><path d="M11.72 1.042c-.01-.102-.004-.217-.027-.315-.035-.152-.027.054-.042-.113-.001-.01.02-.03.008-.032s-.017.038-.008.032.03-.073.016-.065c-.007.005.006.024.012.02.015-.01.013-.035.028-.045.003-.002.01-.03.04-.025.008.002.006.024.012.02.025-.015-.124-.064.04-.025.015.004.01.036.025.04.043.01 0-.046.033.008"/><path d="M11.764 1.036c-.087-.056-.193-.103-.27-.167-.12-.1.06.001-.082-.088-.01-.006-.035.004-.033-.008s.042.002.033.008-.08-.007-.065-.016c.007-.005.02.016.012.02-.015.01-.038-.005-.053.005-.003.002-.033-.005-.04.025-.002.008.02.016.012.02-.025.015-.001-.14-.04.025-.004.015.028.025.025.04-.01.043-.04-.02-.008.032"/></g></svg>