<?xml version="1.0" encoding="UTF-8" standalone="no"?>
<svg
   xmlns:dc="http://purl.org/dc/elements/1.1/"
   xmlns:cc="http://creativecommons.org/ns#"
   xmlns:rdf="http://www.w3.org/1999/02/22-rdf-syntax-ns#"
   xmlns:svg="http://www.w3.org/2000/svg"
   xmlns="http://www.w3.org/2000/svg"
   xmlns:sodipodi="http://sodipodi.sourceforge.net/DTD/sodipodi-0.dtd"
   xmlns:inkscape="http://www.inkscape.org/namespaces/inkscape"
   viewBox="0 0 34.089744 15.170518"
   height="57.336933"
   width="128.84326"
   version="1.1"
   id="svg1615"
   sodipodi:docname="critter_logo_1.svg"
   inkscape:export-filename="/Users/cassaundracaldwell/SourceTree/Portfolio/images/critter_logo_1.png"
   inkscape:export-xdpi="90"
   inkscape:export-ydpi="90"
   inkscape:version="1.0 (4035a4f, 2020-05-01)">
  <metadata
     id="metadata1621">
    <rdf:RDF>
      <cc:Work
         rdf:about="">
        <dc:format>image/svg+xml</dc:format>
        <dc:type
           rdf:resource="http://purl.org/dc/dcmitype/StillImage" />
        <dc:title></dc:title>
      </cc:Work>
    </rdf:RDF>
  </metadata>
  <defs
     id="defs1619" />
  <sodipodi:namedview
     showborder="false"
     fit-margin-bottom="0"
     fit-margin-right="0"
     fit-margin-left="0"
     fit-margin-top="0"
     inkscape:document-rotation="0"
     pagecolor="#ffffff"
     bordercolor="#666666"
     borderopacity="1"
     objecttolerance="10"
     gridtolerance="10"
     guidetolerance="10"
     inkscape:pageopacity="0"
     inkscape:pageshadow="2"
     inkscape:window-width="1440"
     inkscape:window-height="847"
     id="namedview1617"
     showgrid="false"
     inkscape:zoom="4.2546304"
     inkscape:cx="75.275683"
     inkscape:cy="47.634876"
     inkscape:window-x="0"
     inkscape:window-y="25"
     inkscape:window-maximized="0"
     inkscape:current-layer="svg1615" />
  <ellipse
     cx="12.131276"
     cy="-1.1465548"
     rx="0.92799997"
     ry="0.87699997"
     fill="#ffffff"
     id="ellipse1597" />
  <g
     id="g104"
     transform="translate(-0.43549775,-0.31105194)">
    <text
       id="text1591"
       fill="#000000"
       font-family="sans-serif"
       font-size="10.583px"
       xml:space="preserve"
       x="57.595688"
       y="126.85549"><tspan
         id="tspan1589"
         font-family="FinkHeavy"
         font-weight="normal"
         x="0.22368383"
         y="15.280493">tracker</tspan></text>
    <g
       id="g70">
      <text
         y="119.08249"
         x="59.198689"
         xml:space="preserve"
         font-size="10.583px"
         font-family="sans-serif"
         fill="#000000"
         id="text1595"><tspan
           y="7.5074921"
           x="1.8266839"
           font-weight="normal"
           font-family="FinkHeavy"
           id="tspan1593">critter</tspan></text>
      <ellipse
         style="fill:#ffffff;stroke:#ffffff;stroke-width:0.365004;stroke-linecap:round;stroke-linejoin:round;stroke-miterlimit:3.9"
         id="path65"
         cx="12.846297"
         cy="1.6485759"
         rx="0.80873537"
         ry="0.90205103" />
    </g>
    <g
       transform="translate(0.40436762,0.27994692)"
       id="g35">
      <ellipse
         transform="matrix(0.85425438,-0.51985523,0.52388997,0.85178595,0,0)"
         ry="1.0000001"
         rx="0.33399984"
         cy="7.5523748"
         cx="9.6016722"
         id="ellipse1599" />
      <ellipse
         transform="matrix(0.44236384,-0.89683568,0.89868624,0.43859212,0,0)"
         ry="0.4849999"
         rx="0.27100009"
         cy="10.810363"
         cx="3.8758855"
         id="ellipse1601" />
      <ellipse
         transform="matrix(0.99855937,-0.05365802,0.05422897,0.99852853,0,0)"
         ry="0.51800025"
         rx="0.28399989"
         cy="2.6502051"
         cx="11.723059"
         id="ellipse1603" />
      <ellipse
         cx="-12.378194"
         cy="0.44779065"
         rx="0.27200001"
         ry="0.48299998"
         transform="matrix(-0.999864,-0.016492,-0.016668,0.99986108,0,0)"
         id="ellipse1605" />
      <ellipse
         cx="-4.1808171"
         cy="11.436792"
         rx="0.33600006"
         ry="0.54999983"
         transform="matrix(-0.57472891,0.81834387,0.90837332,0.41816015,0,0)"
         id="ellipse1607" />
      <g
         transform="translate(2.1092561e-4,-0.27156001)"
         fill="none"
         stroke="#000000"
         stroke-width="0.059"
         stroke-miterlimit="0"
         id="g1613">
        <path
           d="M 11.72,1.042 C 11.71,0.94 11.716,0.825 11.693,0.727 11.658,0.575 11.666,0.781 11.651,0.614 11.65,0.604 11.671,0.584 11.659,0.582 11.647,0.58 11.642,0.62 11.651,0.614 c 0.009,-0.006 0.03,-0.073 0.016,-0.065 -0.007,0.005 0.006,0.024 0.012,0.02 0.015,-0.01 0.013,-0.035 0.028,-0.045 0.003,-0.002 0.01,-0.03 0.04,-0.025 0.008,0.002 0.006,0.024 0.012,0.02 0.025,-0.015 -0.124,-0.064 0.04,-0.025 0.015,0.004 0.01,0.036 0.025,0.04 0.043,0.01 0,-0.046 0.033,0.008"
           id="path1609" />
        <path
           d="M 11.764,1.036 C 11.677,0.98 11.571,0.933 11.494,0.869 c -0.12,-0.1 0.06,0.001 -0.082,-0.088 -0.01,-0.006 -0.035,0.004 -0.033,-0.008 0.002,-0.012 0.042,0.002 0.033,0.008 -0.009,0.006 -0.08,-0.007 -0.065,-0.016 0.007,-0.005 0.02,0.016 0.012,0.02 -0.015,0.01 -0.038,-0.005 -0.053,0.005 -0.003,0.002 -0.033,-0.005 -0.04,0.025 -0.002,0.008 0.02,0.016 0.012,0.02 -0.025,0.015 -0.001,-0.14 -0.04,0.025 -0.004,0.015 0.028,0.025 0.025,0.04 -0.01,0.043 -0.04,-0.02 -0.008,0.032"
           id="path1611" />
      </g>
    </g>
  </g>
</svg>
