<?xml version="1.0" encoding="UTF-8" standalone="no"?>
<svg
   xmlns:dc="http://purl.org/dc/elements/1.1/"
   xmlns:cc="http://creativecommons.org/ns#"
   xmlns:rdf="http://www.w3.org/1999/02/22-rdf-syntax-ns#"
   xmlns:svg="http://www.w3.org/2000/svg"
   xmlns="http://www.w3.org/2000/svg"
   xmlns:sodipodi="http://sodipodi.sourceforge.net/DTD/sodipodi-0.dtd"
   xmlns:inkscape="http://www.inkscape.org/namespaces/inkscape"
   inkscape:version="1.0 (4035a4f, 2020-05-01)"
   inkscape:export-ydpi="90"
   inkscape:export-xdpi="90"
   inkscape:export-filename="/Users/cassaundracaldwell/SourceTree/Portfolio/images/critter_logo_1.png"
   sodipodi:docname="critter_logo_1.svg"
   id="svg1615"
   version="1.1"
   width="128.848"
   height="58.363"
   viewBox="0 0 34.091 15.442">
  <metadata
     id="metadata1621">
    <rdf:RDF>
      <cc:Work
         rdf:about="">
        <dc:format>image/svg+xml</dc:format>
        <dc:type
           rdf:resource="http://purl.org/dc/dcmitype/StillImage" />
        <dc:title></dc:title>
      </cc:Work>
    </rdf:RDF>
  </metadata>
  <defs
     id="defs1619" />
  <sodipodi:namedview
     inkscape:current-layer="svg1615"
     inkscape:window-maximized="1"
     inkscape:window-y="25"
     inkscape:window-x="0"
     inkscape:cy="29.181499"
     inkscape:cx="64.424004"
     inkscape:zoom="8.5061463"
     showgrid="false"
     id="namedview1617"
     inkscape:window-height="847"
     inkscape:window-width="1440"
     inkscape:pageshadow="2"
     inkscape:pageopacity="0"
     guidetolerance="10"
     gridtolerance="10"
     objecttolerance="10"
     borderopacity="1"
     bordercolor="#666666"
     pagecolor="#ffffff" />
  <text
     id="text1591"
     fill="#000"
     font-family="sans-serif"
     font-size="10.583"
     xml:space="preserve"
     x="57.16"
     y="126.816"><tspan
       id="tspan1589"
       font-family="FinkHeavy"
       font-weight="normal"
       x="-0.212"
       y="15.241">tracker</tspan></text>
  <text
     id="text1595"
     fill="#000"
     font-family="sans-serif"
     font-size="10.583"
     xml:space="preserve"
     x="58.763"
     y="119.043"><tspan
       id="tspan1593"
       font-family="FinkHeavy"
       font-weight="normal"
       x="1.391"
       y="7.468">critter</tspan></text>
  <ellipse
     id="ellipse1597"
     fill="#fff"
     ry=".877"
     rx=".928"
     cy="1.737"
     cx="12.38" />
  <ellipse
     id="ellipse1599"
     cx="1.819"
     cy="131.636"
     rx=".334"
     ry="1"
     transform="matrix(.854254 -.519855 .52389 .851786 -58.358 -109.467)" />
  <ellipse
     id="ellipse1601"
     cx="-69.15"
     cy="111.693"
     rx=".271"
     ry=".485"
     transform="matrix(.442364 -.896836 .898686 .438592 -58.358 -109.467)" />
  <ellipse
     id="ellipse1603"
     cx="64.044"
     cy="115.362"
     rx=".284"
     ry=".518"
     transform="matrix(.998559 -.053658 .054229 .998529 -58.358 -109.467)" />
  <ellipse
     id="ellipse1605"
     transform="matrix(-.999864 -.016492 -.016668 .999861 -58.358 -109.467)"
     ry=".483"
     rx=".272"
     cy="109.209"
     cx="-72.557" />
  <ellipse
     id="ellipse1607"
     transform="matrix(-.574729 .818344 .908373 .41816 -58.358 -109.467)"
     ry=".55"
     rx=".336"
     cy="124.101"
     cx="72.348" />
  <g
     id="g1613"
     stroke-miterlimit="0"
     stroke-width=".059"
     stroke="#000"
     fill="none">
    <path
       id="path1609"
       d="M11.72 1.042c-.01-.102-.004-.217-.027-.315-.035-.152-.027.054-.042-.113-.001-.01.02-.03.008-.032s-.017.038-.008.032.03-.073.016-.065c-.007.005.006.024.012.02.015-.01.013-.035.028-.045.003-.002.01-.03.04-.025.008.002.006.024.012.02.025-.015-.124-.064.04-.025.015.004.01.036.025.04.043.01 0-.046.033.008" />
    <path
       id="path1611"
       d="M11.764 1.036c-.087-.056-.193-.103-.27-.167-.12-.1.06.001-.082-.088-.01-.006-.035.004-.033-.008s.042.002.033.008-.08-.007-.065-.016c.007-.005.02.016.012.02-.015.01-.038-.005-.053.005-.003.002-.033-.005-.04.025-.002.008.02.016.012.02-.025.015-.001-.14-.04.025-.004.015.028.025.025.04-.01.043-.04-.02-.008.032" />
  </g>
</svg>
